<?xml version="1.0" encoding="UTF-8"?>
<svg version="1.1" xmlns="http://www.w3.org/2000/svg" width="425" height="301">
<path d="M0,0 L425,0 L425,2 L424,2 L424,60 L425,60 L425,62 L424,62 L424,120 L425,120 L425,122 L424,122 L424,180 L425,180 L425,182 L424,182 L424,240 L425,240 L425,242 L424,242 L424,301 L422,301 L422,242 L364,242 L364,301 L362,301 L362,242 L304,242 L304,301 L302,301 L302,242 L244,242 L244,301 L242,301 L242,242 L183,242 L183,301 L181,301 L181,242 L123,242 L123,301 L121,301 L121,242 L63,242 L63,301 L61,301 L61,242 L3,242 L3,301 L1,301 L1,242 L0,242 L0,240 L1,240 L1,182 L0,182 L0,180 L1,180 L1,122 L0,122 L0,120 L1,120 L1,62 L0,62 L0,60 L1,60 L1,2 L0,2 Z M3,2 L3,60 L61,60 L61,2 Z M63,2 L63,60 L121,60 L121,2 Z M123,2 L123,60 L181,60 L181,2 Z M183,2 L183,60 L242,60 L242,2 Z M244,2 L244,60 L302,60 L302,2 Z M304,2 L304,60 L362,60 L362,2 Z M364,2 L364,60 L422,60 L422,2 Z M3,62 L3,120 L61,120 L61,62 Z M63,62 L63,120 L121,120 L121,62 Z M183,62 L183,120 L242,120 L242,62 Z M244,62 L244,120 L302,120 L302,62 Z M304,62 L304,120 L362,120 L362,62 Z M364,62 L364,120 L422,120 L422,62 Z M3,122 L3,180 L61,180 L61,122 Z M63,122 L63,180 L121,180 L121,122 Z M364,122 L364,180 L422,180 L422,122 Z M3,182 L3,240 L61,240 L61,182 Z M123,182 L123,240 L181,240 L181,182 Z M304,182 L304,240 L362,240 L362,182 Z M364,182 L364,240 L422,240 L422,182 Z " fill="#000000" transform="translate(0,0)"/>
</svg>
